PathFileType	4	(X/Y/Z)	C:\Users\Basilio\Documents\Thesis Gigler\squatting_fais\c3dfiles\073\SLS_back_pre1\markers_experimental.trc
DataRate	CameraRate	NumFrames	NumMarkers	Units	OrigDataRate	OrigDataStartFrame	OrigNumFrames
200.000000	200.000000	4	61	mm	200.000000	635	1271
Frame#	Time	FHD			LBHD			RBHD			C7			T10			CLAV			LSHO			LUUPA			LMUPA			LDUPA			LLEP			LMEP			LRAD			LUL			LRFIN			RSHO			RUPA1			RMUPA			RDUPA			RLEP			RMEP			RRAD			RUL			RUFIN			LASI			RASI			USACR			LSACR			RSACR			LTHI1			LTHI2			LTHI3			LTHI4			LLFC			LTIB1			LTIB2			LTIB3			LTIB4			LLMAL			LMMAL			LHEE			LMT1			LMT2			LMT5			RTHI			RTHI2			RTHI3			RTHI4			RLFC			RMFC			RTIB1			RTIB2			RTIB3			RTIB4			RLMAL			RMMAL			RHEE			RMT1			RMT2			RMT5			LMFC			
		X1	Y1	Z1	X2	Y2	Z2	X3	Y3	Z3	X4	Y4	Z4	X5	Y5	Z5	X6	Y6	Z6	X7	Y7	Z7	X8	Y8	Z8	X9	Y9	Z9	X10	Y10	Z10	X11	Y11	Z11	X12	Y12	Z12	X13	Y13	Z13	X14	Y14	Z14	X15	Y15	Z15	X16	Y16	Z16	X17	Y17	Z17	X18	Y18	Z18	X19	Y19	Z19	X20	Y20	Z20	X21	Y21	Z21	X22	Y22	Z22	X23	Y23	Z23	X24	Y24	Z24	X25	Y25	Z25	X26	Y26	Z26	X27	Y27	Z27	X28	Y28	Z28	X29	Y29	Z29	X30	Y30	Z30	X31	Y31	Z31	X32	Y32	Z32	X33	Y33	Z33	X34	Y34	Z34	X35	Y35	Z35	X36	Y36	Z36	X37	Y37	Z37	X38	Y38	Z38	X39	Y39	Z39	X40	Y40	Z40	X41	Y41	Z41	X42	Y42	Z42	X43	Y43	Z43	X44	Y44	Z44	X45	Y45	Z45	X46	Y46	Z46	X47	Y47	Z47	X48	Y48	Z48	X49	Y49	Z49	X50	Y50	Z50	X51	Y51	Z51	X52	Y52	Z52	X53	Y53	Z53	X54	Y54	Z54	X55	Y55	Z55	X56	Y56	Z56	X57	Y57	Z57	X58	Y58	Z58	X59	Y59	Z59	X60	Y60	Z60	X61	Y61	Z61	

636	3.175	17.59587097167969	1282.267822265625	-747.9082031250001	-118.437484741211	1266.068237304688	-776.3037109375002	-147.1629943847657	1251.738891601563	-643.5919799804689	-179.9469451904297	1182.283935546875	-707.6135864257814	-407.5948486328126	950.2331542968752	-731.7001953125001	-105.2635269165039	1048.875	-705.8710937500001	-109.558578491211	1127.614868164063	-834.644958496094	-38.73847198486329	1059.814331054688	-936.879333496094	2.473776578903199	1071.113525390625	-910.7072753906252	20.2545280456543	1026.23828125	-947.9464111328127	121.3326263427735	990.9617919921877	-950.6573486328127	111.8614578247071	934.0909423828127	-911.367370605469	380.6628112792969	990.7971801757815	-837.480407714844	385.213836669922	989.1338500976565	-911.7837524414065	462.118133544922	998.2843017578127	-828.6009521484377	-103.9445266723633	1115.73193359375	-576.2675781250001	-31.68625259399415	1019.563659667969	-470.0687866210939	8.882421493530275	1036.737426757813	-489.6293029785157	28.32383155822755	985.8757324218752	-464.6699829101564	119.4022064208985	961.8071289062502	-466.7100524902345	112.3090591430664	907.8240966796877	-528.8903198242189	371.9657287597657	984.5210571289065	-582.7342529296876	383.4360656738282	989.3679809570315	-509.9054565429689	461.2261657714845	1013.3251953125	-586.8727416992189	-359.3699035644532	720.8753051757814	-847.2493286132815	-364.3241882324219	757.7174682617189	-605.1312255859376	-497.2938232421876	869.0782470703127	-733.9097900390626	-518.8303833007814	845.1097412109377	-759.3674926757814	-527.2070312500001	853.6776123046877	-703.4056396484376	-391.8179931640626	432.0525207519532	-902.0642700195315	-349.3143920898438	359.8379211425782	-883.3674316406252	-310.7165527343751	367.6782836914063	-853.9197998046877	-376.0911254882813	306.4382019042969	-876.0103149414065	-384.8095092773439	263.4320068359376	-877.4704589843752	-560.8013916015626	212.6974334716797	-829.8230590820315	-593.3754882812501	267.7573852539063	-889.6718750000002	-604.5415649414064	231.7060241699219	-865.809020996094	-683.2498168945314	242.8608398437501	-837.5806274414065	-793.0994873046877	311.8518981933594	-876.7797851562502	-773.1848754882815	309.0446166992188	-789.408630371094	-814.9362792968752	381.0194702148438	-842.9194946289065	-860.7794189453127	169.3428649902344	-776.8369750976565	-859.971130371094	161.5797119140625	-815.5994873046877	-876.5233154296877	192.5662231445313	-872.4304199218752	-346.8401184082032	607.0838012695314	-538.1583251953126	-281.4823608398438	598.3796997070314	-546.4390258789064	-261.2587890625001	623.6197509765626	-553.8992919921876	-242.6094665527344	527.4211425781251	-569.2822265625001	-146.3387298583985	441.0784912109376	-611.1527099609376	-151.1273651123047	450.2181396484376	-736.3339233398439	-174.0572204589844	300.0017700195313	-719.8046875000001	-228.310531616211	229.8953857421876	-657.7630004882814	-212.6492156982422	223.5684967041016	-701.7189941406251	-254.4369049072266	199.3550109863282	-734.5131835937501	-351.0899047851563	92.70053863525392	-686.4283447265626	-342.7160034179688	129.4551391601563	-770.4002075195315	-430.2399902343751	82.42038726806642	-743.1137084960939	-205.8911590576172	56.55709838867189	-759.5235595703126	-205.798324584961	51.44242477416994	-718.5717163085939	-248.4702606201172	33.89794158935548	-670.1879272460939	-400.3054199218751	264.6497497558594	-739.3832397460939	
637	3.18	17.66652488708496	1282.143432617188	-747.7742919921876	-118.3020553588867	1266.124633789063	-776.2708129882815	-147.1032257080078	1251.771118164063	-643.4476928710939	-179.9327697753907	1182.28564453125	-707.5914306640626	-407.5560913085939	950.2821044921877	-731.7166748046876	-105.206283569336	1048.894775390625	-705.8047485351564	-109.5178985595703	1127.609375	-834.6028442382815	-38.6499366760254	1059.847900390625	-936.8221435546877	2.49069094657898	1071.144897460938	-910.6248779296877	20.31653022766114	1026.284301757813	-947.9295043945315	121.4098281860352	991.0645141601565	-950.664733886719	111.9267578125	934.1150512695315	-911.4153442382815	380.7088623046876	990.8110961914065	-837.5132446289065	385.2417297363282	989.179138183594	-911.8707275390627	462.4689941406251	998.341979980469	-828.8536376953127	-103.8927764892578	1115.759155273438	-576.2583618164064	-31.65345001220704	1019.514099121094	-470.1162414550782	8.922866821289064	1036.703369140625	-489.6341247558595	28.30073547363282	985.814636230469	-464.7738342285157	119.4132080078125	961.715515136719	-466.7847290039064	112.3136901855469	907.7471313476565	-529.1549072265626	371.9460449218751	984.4558715820315	-582.9161987304689	383.4076843261719	989.235778808594	-510.1024780273439	461.1854248046876	1013.234680175781	-587.0783691406251	-359.2406616210938	720.8137207031251	-847.0997314453127	-364.3463439941407	757.9042358398439	-605.0448608398439	-497.2726440429689	869.1041259765627	-734.0081787109376	-518.8519897460939	845.0980224609377	-759.4718627929689	-527.1596069335939	853.6710205078127	-703.5504150390626	-391.7513732910157	432.0648803710939	-902.0261230468752	-349.2614746093751	359.8093261718751	-883.3223266601565	-310.6681213378907	367.6176757812501	-853.912536621094	-376.0740356445313	306.3355407714844	-875.9183349609377	-384.8527221679689	263.3706359863282	-877.3737792968752	-560.8085327148439	212.6656799316407	-829.7068481445315	-593.4512329101564	267.7273864746094	-889.6557617187502	-604.5739746093751	231.6622924804688	-865.7634887695315	-683.2387084960939	242.8656158447266	-837.5090942382815	-793.118591308594	311.7966613769532	-876.726257324219	-773.1975708007815	309.0252990722657	-789.3231201171877	-814.899597167969	380.9931335449219	-842.9066162109377	-860.7771606445315	169.3674011230469	-776.7122192382815	-858.4914550781252	161.6762237548828	-814.133239746094	-876.5178833007815	192.4778900146485	-872.3604125976565	-347.0641479492188	607.1588745117189	-537.9562377929689	-281.6973571777344	598.4218750000001	-546.1476440429689	-261.4889831542969	623.6507568359376	-553.5197753906251	-242.8047180175782	527.4309082031251	-568.9506835937501	-146.4860076904297	441.0449523925782	-610.7382202148439	-151.1356201171875	450.2565307617189	-735.8849487304689	-174.0867156982422	299.9535827636719	-719.5170288085939	-228.4391632080079	229.9038848876954	-657.3883666992189	-212.6997680664063	223.5768585205079	-701.4119873046876	-254.4510498046876	199.3562011718751	-734.1296997070314	-351.1319274902344	92.64107513427736	-686.3292236328126	-342.6913146972657	129.5384979248047	-770.3026123046877	-430.2319946289064	82.4514617919922	-743.0304565429689	-205.9166412353516	56.56813049316408	-759.5093994140626	-205.7563476562501	51.45792388916017	-718.4963989257814	-248.5098876953126	33.88134384155274	-670.1443481445314	-400.3273925781251	264.6102600097657	-739.2699584960939	
638	3.185	17.97174453735352	1282.149291992188	-747.7681274414064	-118.2674560546875	1266.120727539063	-776.2078247070315	-147.0074005126953	1251.724487304688	-643.4140625000001	-179.9048309326172	1182.280029296875	-707.5588378906251	-407.4994201660157	950.2837524414065	-731.7387084960939	-105.1286087036133	1048.896850585938	-705.7417602539064	-109.4476165771485	1127.6171875	-834.546813964844	-38.57001876831055	1059.900634765625	-936.8408203125002	2.55831265449524	1071.18603515625	-910.5654296875002	20.34634017944336	1026.416381835938	-947.9819946289065	121.441146850586	991.1665649414065	-950.6416625976565	111.9837722778321	934.1851196289065	-911.3779907226565	380.7832946777344	990.809997558594	-837.5543212890627	385.2426147460939	989.2147216796877	-911.8870849609377	462.1920166015626	998.1813964843752	-828.6924438476565	-103.8938903808594	1115.760009765625	-576.2592773437501	-31.65151023864747	1019.47314453125	-470.1187744140626	8.931933403015138	1036.677978515625	-489.6438903808595	28.30648994445801	985.7366333007815	-464.7847900390626	119.3934860229492	961.6780395507815	-466.894744873047	112.2267150878907	907.7329101562502	-529.2536010742189	371.9326782226563	984.387145996094	-583.1447143554689	383.4046325683594	989.1693115234377	-510.2409973144532	461.1218872070314	1013.136108398438	-587.3438720703126	-359.1499938964844	720.7594604492189	-846.9916992187502	-364.5768432617188	757.7399902343751	-604.9359130859376	-497.2742614746095	869.113464355469	-734.0853271484376	-518.7073974609376	845.1214599609377	-759.5447387695314	-527.1778564453126	853.6665039062502	-703.6466064453126	-391.7310791015626	432.0239868164064	-901.9365234375002	-349.1991271972657	359.7408752441407	-883.2200317382815	-310.5800170898438	367.5413513183594	-853.8508300781252	-376.0256958007813	306.2914123535157	-875.873718261719	-384.7914428710939	263.3215637207032	-877.3084716796877	-560.7813720703126	212.6157531738282	-829.6782226562502	-593.4506225585939	267.6709899902344	-889.5847778320315	-604.6356811523439	231.6646575927735	-865.6916503906252	-683.2448120117189	242.7966461181641	-837.4664306640627	-793.107116699219	311.7102355957032	-876.6718750000002	-773.1611328125002	308.9655456542969	-789.293640136719	-814.915954589844	380.9279479980469	-842.844665527344	-860.7832031250002	169.2890777587891	-776.6893310546877	-858.789245605469	161.6173858642578	-814.2731933593752	-876.349548339844	192.4598236083985	-872.0463867187502	-347.2991943359376	607.1724243164064	-537.8223876953126	-281.9313049316407	598.4443359375001	-545.9232788085939	-261.7301025390626	623.6941528320314	-553.1478881835939	-242.9975738525391	527.4553833007814	-568.5428466796876	-146.6411590576172	441.024871826172	-610.3096923828126	-151.2330322265625	450.1788024902345	-735.4924926757814	-174.2120208740235	299.9533081054688	-718.9677124023439	-228.5177764892579	229.9268188476563	-657.0665893554689	-212.7579650878907	223.5950469970704	-701.0970458984376	-254.4198913574219	199.3523864746094	-733.9674682617189	-351.1362915039063	92.58833312988283	-686.2380371093751	-342.7069091796876	129.5904388427735	-770.0842285156252	-430.2574462890626	82.45539855957033	-743.0080566406251	-205.9165496826172	56.65287017822267	-759.4784545898439	-205.7599029541016	51.43314361572267	-718.3883666992189	-248.5032196044922	33.80912017822266	-670.1307983398439	-400.3271484375001	264.5673217773438	-739.2211303710939	
639	3.19	17.98478507995606	1282.087158203125	-747.6748046875001	-118.2113418579102	1266.187377929688	-776.1270751953127	-146.9842681884766	1251.718627929688	-643.4906005859376	-179.8515319824219	1182.282958984375	-707.5424194335939	-407.4917297363282	950.2823486328127	-731.7618408203126	-105.1603698730469	1048.890869140625	-705.6754760742189	-109.3959503173828	1127.549560546875	-834.5070800781252	-38.55607986450196	1059.9677734375	-936.8250122070315	2.58310604095459	1071.249877929688	-910.5529785156252	20.46249771118164	1026.579467773438	-947.987487792969	121.4056701660157	991.2332763671877	-950.6497192382815	112.0224533081055	934.2501220703127	-911.3486938476565	380.8797302246094	990.8040771484377	-837.5491943359377	385.3604736328126	989.241149902344	-911.931579589844	462.3302612304689	998.194030761719	-828.730651855469	-103.8958358764649	1115.76513671875	-576.1949462890626	-31.69480133056641	1019.448303222656	-470.1946105957032	8.938165664672853	1036.641479492188	-489.6544799804689	28.29757690429688	985.703552246094	-464.8324279785157	119.3984375	961.6336669921877	-467.032196044922	112.1856307983399	907.6975708007815	-529.4010620117189	371.9325561523438	984.275085449219	-583.5548706054689	383.4158325195313	989.0397949218752	-510.4344482421876	461.0853881835939	1013.05859375	-587.4416503906251	-359.0109558105469	720.6428222656251	-846.9216308593752	-364.7786254882813	757.6824340820314	-604.8464355468751	-497.2221984863282	869.0924072265627	-734.1414184570314	-518.7528076171876	845.132019042969	-759.6564331054689	-527.2205200195314	853.7421875000002	-703.7870483398439	-391.6156616210939	431.9893188476564	-901.8725585937502	-349.1408081054688	359.6960144042969	-883.1177368164065	-310.5569458007813	367.4536437988282	-853.7083129882815	-375.9118957519532	306.2133483886719	-875.7709960937502	-384.7283325195314	263.2869873046876	-877.227722167969	-560.7855834960939	212.5526733398438	-829.6844482421877	-593.4072265625001	267.6478271484376	-889.5068359375002	-604.5387573242189	231.5958251953126	-865.6712036132815	-683.2359008789064	242.7414093017579	-837.411804199219	-793.1218261718752	311.6910095214844	-876.5997314453127	-773.1555175781252	308.9266357421876	-789.2532958984377	-814.8787231445315	380.8624877929688	-842.8153076171877	-860.7600097656252	169.2657165527344	-776.6480102539065	-858.6881103515627	161.5643310546875	-814.0819091796877	-876.3271484375002	192.4270477294922	-872.0191040039065	-347.5459899902344	607.2059936523439	-537.6632080078126	-282.1987304687501	598.4555053710939	-545.6752929687501	-261.9238586425782	623.7423706054689	-552.8372192382814	-243.2060852050782	527.4746093750001	-568.2520141601564	-146.82080078125	441.0069274902345	-609.9146728515626	-151.3500213623047	450.1868591308595	-735.1132202148439	-174.1578216552735	299.9784240722657	-718.6289062500001	-228.5756835937501	229.9079132080079	-656.7746582031251	-212.8343048095704	223.566635131836	-700.7197875976564	-254.4506988525391	199.3536071777344	-733.6396484375001	-351.1090087890626	92.5548782348633	-686.1802978515626	-342.7302856445313	129.6399841308594	-769.899597167969	-430.277069091797	82.45583343505861	-743.0027465820314	-205.958236694336	56.66362762451173	-759.4166870117189	-205.7745208740235	51.44981384277345	-718.4429931640626	-248.5064849853516	33.78741836547852	-670.1026611328126	-400.315887451172	264.5264587402344	-739.2186279296876	
